<svg xmlns="http://www.w3.org/2000/svg" viewBox="0 0 960 540" width="960" height="540" role="img">
<defs>
<radialGradient id="halo">
<stop offset="0" stop-color="#FF4900" stop-opacity="0.22"/>
<stop offset="1" stop-color="#FF4900" stop-opacity="0"/>
</radialGradient>
</defs>
<rect width="960" height="540" fill="#0A0A0A"/>
<circle cx="787.1999999999999" cy="86.4" r="403.2" fill="url(#halo)"/>
<path d="M84,76 h302 a14,14 0 0 1 14,14 v46 a14,14 0 0 1 -14,14 h-312 a4,4 0 0 1 -4,-4 v-56 a14,14 0 0 1 14,-14 z" fill="#141414" stroke="#242424" stroke-width="1"/>
<text x="96" y="113" fill="#FFFFFF" font-size="22" font-weight="600"
font-family="system-ui,-apple-system,'Segoe UI',Roboto,sans-serif"
text-anchor="start" dominant-baseline="central">"déjame pensarlo"</text>
<path d="M394,168 h492 a4,4 0 0 1 4,4 v78 a14,14 0 0 1 -14,14 h-482 a14,14 0 0 1 -14,-14 v-68 a14,14 0 0 1 14,-14 z" fill="#FF4900"/>
<rect x="408" y="194" width="440" height="9" rx="4.5" fill="rgba(255,255,255,.62)"/><rect x="408" y="212" width="370" height="9" rx="4.5" fill="rgba(255,255,255,.62)"/>
<path d="M848,242 l4,4 l8,-9 M855,242 l4,4 l8,-9" fill="none" stroke="#FFD9C4"
stroke-width="2" stroke-linecap="round" stroke-linejoin="round"/>
<path d="M84,282 h258 a14,14 0 0 1 14,14 v32 a14,14 0 0 1 -14,14 h-268 a4,4 0 0 1 -4,-4 v-42 a14,14 0 0 1 14,-14 z" fill="#141414" stroke="#242424" stroke-width="1"/>
<rect x="96" y="301" width="190" height="7" rx="3.5" fill="#2E2E2E"/><rect x="96" y="314" width="128" height="7" rx="3.5" fill="#2E2E2E"/>
<rect x="70" y="356" width="101.78" height="36" rx="18" fill="#FF4900"/><text x="120.89" y="374" fill="#1A0A00" font-size="17" font-weight="700"
font-family="system-ui,-apple-system,'Segoe UI',Roboto,sans-serif"
text-anchor="middle" dominant-baseline="central">Cerrado</text>
<path d="M214,374 l4,4 l8,-9 M221,374 l4,4 l8,-9" fill="none" stroke="#FF7A18"
stroke-width="2" stroke-linecap="round" stroke-linejoin="round"/>
</svg>
